# xmcd
#
# Track frame offsets: 
#        150
#        10710
#        21822
#        35430
#        50727
#        64565
#        77782
#        91837
#        105757
#        121357
#        132872
#        155307
#        170752
#        181432
#        195272
#        205355
#        223837
#        236905
#
# Disc length: 3354 seconds
#
# Revision: 7
# Processed by: cddbd v1.5.2PL0 Copyright (c) Steve Scherf et al.
# Submitted via: ExactAudioCopy v1.0b3
#
DISCID=ed0d1812
DTITLE=Louis Armstrong - All Time Greatest Hits
DYEAR=1994
DGENRE=Jazz
TTITLE0=What A Wonderful World
TTITLE1=Hello Dolly
TTITLE2=Sittin' In The Sun
TTITLE3=Mack The Knife
TTITLE4=A Kiss To Build A Dream On
TTITLE5=It Takes Two To Tango
TTITLE6=That Lucky Old Sun
TTITLE7=Kiss Of Fire
TTITLE8=(When We Are Dancin') I Get Ideas
TTITLE9=Gone Fishin'
TTITLE10=Skokiaan
TTITLE11=La Vie En Rose
TTITLE12=The Dummy Song
TTITLE13=Chloe
TTITLE14=I Still Get Jealous
TTITLE15=When You're Smiling
TTITLE16=Blueberry Hill
TTITLE17=When It's Sleepy Time Down South
EXTD=
EXTT0=
EXTT1=
EXTT2=
EXTT3=
EXTT4=
EXTT5=
EXTT6=
EXTT7=
EXTT8=
EXTT9=
EXTT10=
EXTT11=
EXTT12=
EXTT13=
EXTT14=
EXTT15=
EXTT16=
EXTT17=
PLAYORDER=
